<?xml version="1.0" encoding="utf-8"?>
<!-- Generator: Adobe Illustrator 19.0.0, SVG Export Plug-In . SVG Version: 6.00 Build 0)  -->
<svg version="1.1" id="Laag_1" xmlns="http://www.w3.org/2000/svg" xmlns:xlink="http://www.w3.org/1999/xlink" x="0px" y="0px"
	 viewBox="0 0 100 100" style="enable-background:new 0 0 100 100;" xml:space="preserve">
<style type="text/css">
	.st0{fill:#F7941E;}
</style>
<g>
	<path id="XMLID_15_" class="st0" d="M75.5,53.9V36H53.6c-0.1,0.4-0.1,0.8-0.1,1.3c0,1.1,0.3,2.1,0.8,3c0.5,0.8,1.4,1.6,2.5,2.4
		s3.8,2.2,8,4.2C69.8,49.3,73.3,51.6,75.5,53.9z"/>
	<path id="XMLID_16_" class="st0" d="M62,70.5c0.3-0.1,0.5-0.3,0.7-0.3c1.5-1,2.2-2.7,2.2-4.7c0-1.2-0.3-2.2-1-3.2
		c-0.7-0.9-1.6-2.1-3-2.7c-0.7-0.3-5.8,0.8-8.4,0.8c-5.2,0-9.1-1.7-11.9-5.2s-4.1-8.6-4.1-15.2c0-6.4,1.7-11.4,5.1-15.2
		s7.9-5.6,13.5-5.6c4.1,0,8.1,0.8,11.9,2.4c0.4,0.1,0.8,0.2,1.2,0.3c0.3,0.1,0.7,0.2,1,0.3l4.1-10c-5.8-2.5-11.8-3.8-18.1-3.8
		c-10,0-17.9,2.7-23.5,8.3c-5.6,5.5-8.4,13.3-8.4,23.1c0,10.2,2.4,17.9,7.3,23.3s11.9,8.1,21.2,8.1C55.2,71.3,58.7,71,62,70.5z"/>
</g>
<g>
	<path class="st0" d="M11.3,92.3c0,1.1-0.4,2-1.2,2.6s-1.9,1-3.3,1c-1.3,0-2.5-0.2-3.5-0.7v-2.4c0.8,0.4,1.5,0.6,2.1,0.8
		c0.6,0.2,1.1,0.2,1.6,0.2c0.6,0,1-0.1,1.3-0.3c0.3-0.2,0.5-0.5,0.5-1c0-0.2-0.1-0.5-0.2-0.6c-0.1-0.2-0.3-0.4-0.6-0.5
		c-0.3-0.2-0.8-0.5-1.6-0.8c-0.8-0.4-1.3-0.7-1.7-1S4,88.7,3.7,88.2c-0.2-0.4-0.3-0.9-0.3-1.5c0-1.1,0.4-1.9,1.1-2.6
		s1.8-0.9,3.1-0.9c0.6,0,1.2,0.1,1.8,0.2s1.2,0.4,1.8,0.6l-0.8,2c-0.7-0.3-1.2-0.5-1.6-0.6c-0.4-0.1-0.8-0.2-1.3-0.2
		c-0.5,0-0.9,0.1-1.1,0.3c-0.3,0.2-0.4,0.5-0.4,0.9c0,0.2,0.1,0.4,0.2,0.6c0.1,0.2,0.3,0.3,0.5,0.5c0.2,0.2,0.8,0.4,1.7,0.9
		c1.1,0.5,1.9,1.1,2.4,1.7C11,90.8,11.3,91.5,11.3,92.3z"/>
	<path class="st0" d="M21.6,88.8h4.9v6.4c-0.8,0.3-1.5,0.4-2.2,0.5s-1.4,0.2-2.1,0.2c-1.9,0-3.3-0.5-4.2-1.6s-1.5-2.7-1.5-4.7
		c0-2,0.6-3.5,1.7-4.6c1.1-1.1,2.7-1.7,4.7-1.7c1.3,0,2.5,0.3,3.6,0.8l-0.9,2.1c-0.9-0.4-1.8-0.7-2.8-0.7c-1.1,0-2,0.4-2.7,1.1
		c-0.7,0.8-1,1.8-1,3c0,1.3,0.3,2.4,0.8,3.1s1.3,1.1,2.4,1.1c0.5,0,1.1-0.1,1.7-0.2V91h-2.3V88.8z"/>
	<path class="st0" d="M46,85.4c-1,0-1.7,0.4-2.3,1.1c-0.5,0.7-0.8,1.8-0.8,3.1c0,2.7,1,4.1,3.1,4.1c0.9,0,1.9-0.2,3.1-0.6v2.2
		c-1,0.4-2.1,0.6-3.4,0.6c-1.8,0-3.2-0.5-4.1-1.6c-0.9-1.1-1.4-2.6-1.4-4.7c0-1.3,0.2-2.4,0.7-3.4c0.5-1,1.1-1.7,2-2.2
		c0.9-0.5,1.9-0.8,3.1-0.8c1.2,0,2.4,0.3,3.6,0.9l-0.8,2.1c-0.5-0.2-0.9-0.4-1.4-0.6C46.9,85.5,46.4,85.4,46,85.4z"/>
	<path class="st0" d="M66.3,89.5c0,2-0.5,3.6-1.5,4.7c-1,1.1-2.5,1.6-4.3,1.6s-3.3-0.5-4.3-1.6c-1-1.1-1.5-2.7-1.5-4.7
		c0-2,0.5-3.6,1.5-4.7c1-1.1,2.5-1.6,4.3-1.6s3.3,0.5,4.3,1.6C65.8,85.9,66.3,87.5,66.3,89.5z M57.3,89.5c0,1.4,0.3,2.4,0.8,3.1
		c0.5,0.7,1.3,1,2.3,1c2.1,0,3.1-1.4,3.1-4.1c0-2.8-1-4.2-3.1-4.2c-1,0-1.8,0.3-2.3,1C57.6,87.1,57.3,88.2,57.3,89.5z"/>
	<path class="st0" d="M82.5,89.4c0,2-0.6,3.6-1.7,4.6c-1.2,1.1-2.8,1.6-5,1.6h-3.5V83.4h3.9c2,0,3.6,0.5,4.7,1.6
		S82.5,87.5,82.5,89.4z M79.8,89.5c0-2.6-1.2-4-3.5-4h-1.4v8H76C78.5,93.5,79.8,92.2,79.8,89.5z"/>
	<path class="st0" d="M95.5,95.7h-7.1V83.4h7.1v2.1h-4.5v2.7h4.2v2.1h-4.2v3.2h4.5V95.7z"/>
</g>
</svg>
