<?xml version="1.0" encoding="utf-8"?>
<!-- Generator: Adobe Illustrator 19.0.0, SVG Export Plug-In . SVG Version: 6.00 Build 0)  -->
<svg version="1.1" id="Laag_1" xmlns="http://www.w3.org/2000/svg" xmlns:xlink="http://www.w3.org/1999/xlink" x="0px" y="0px"
	 viewBox="0 0 100 100" style="enable-background:new 0 0 100 100;" xml:space="preserve">
<style type="text/css">
	.st0{fill:#FFFFFF;}
</style>
<path id="XMLID_15_" class="st0" d="M86.2,70.6V44.5H54.4c-0.1,0.6-0.2,1.2-0.2,1.9c0,1.6,0.4,3,1.1,4.3c0.8,1.2,2,2.4,3.6,3.5
	c1.6,1.1,5.5,3.2,11.7,6.1C77.9,63.8,83,67.2,86.2,70.6z"/>
<path id="XMLID_16_" class="st0" d="M66.6,94.7c0.5-0.2,0.8-0.4,1-0.5c2.2-1.5,3.2-3.9,3.2-6.9c0-1.7-0.5-3.2-1.4-4.6
	c-1-1.3-2.3-3-4.3-3.9c-1-0.5-8.4,1.2-12.3,1.2c-7.6,0-13.3-2.5-17.3-7.6c-4-5.1-5.9-12.5-5.9-22.1c0-9.3,2.5-16.6,7.4-22.1
	c4.9-5.5,11.5-8.2,19.6-8.2c6,0,11.8,1.2,17.3,3.5c0.6,0.1,1.2,0.3,1.7,0.4c0.5,0.1,1,0.3,1.4,0.4l6-14.6C74.6,6,65.8,4.2,56.7,4.2
	c-14.6,0-26,4-34.2,12.1c-8.2,8-12.3,19.3-12.3,33.6c0,14.8,3.5,26.1,10.6,34c7.1,7.9,17.4,11.8,30.8,11.8
	C56.7,95.8,61.7,95.4,66.6,94.7z"/>
</svg>
